<svg width="137" height="137" viewBox="0 0 137 137" fill="none" xmlns="http://www.w3.org/2000/svg">
<circle cx="68.3198" cy="68.3196" r="49.5" transform="rotate(-32.4082 68.3198 68.3196)" fill="#04E0FD" fill-opacity="0.23"/>
<path d="M85.2024 94.9139C99.8898 85.59 104.238 66.125 94.9139 51.4376C85.5901 36.7502 66.1251 32.4022 51.4377 41.726C36.7502 51.0499 32.4022 70.5149 41.7261 85.2023C51.05 99.8897 70.515 104.238 85.2024 94.9139Z" fill="url(#paint0_linear_187_3344)"/>
<path d="M86.8165 51.5278C84.5686 47.5791 80.2787 46.736 76.1509 46.9079L81.509 59.6875C82.82 58.7488 83.8119 58.8429 84.2079 58.9325C84.7024 59.0441 86.0355 59.4755 86.0445 61.4923C87.7396 59.9903 89.5319 56.2976 86.8165 51.5278Z" fill="url(#paint1_linear_187_3344)"/>
<path fill-rule="evenodd" clip-rule="evenodd" d="M52.5426 54.4475L48.7088 53.5812C51.9593 50.9145 61.6067 45.5637 74.1904 45.4956C74.7268 46.0064 75.1538 47.0131 75.1538 47.0131L76.1498 46.9127C77.3981 47.4333 80.1998 49.3878 81.4181 53.0428C82.6368 56.6975 82.1368 58.903 81.7346 59.5484C80.5266 60.3153 78.9158 62.3173 80.2167 65.8349C81.5174 69.3522 80.6711 70.8335 80.0851 71.1344L66.8926 79.7222L54.8585 80.1227L46.7833 70.2392L47.1556 65.3188L49.2983 58.849L51.6509 55.5458L52.5426 54.4475ZM71.043 48.9035C70.8446 49.8859 70.4825 50.5265 70.3766 50.7052C66.4926 52.1497 64.1361 51.1618 64.1361 51.1618C67.3511 49.0929 70.7515 48.0114 73.7071 47.9571C73.7071 47.9571 72.3163 48.3155 71.043 48.9035Z" fill="url(#paint2_linear_187_3344)"/>
<path fill-rule="evenodd" clip-rule="evenodd" d="M80.0988 65.9101C78.4838 68.5504 76.1259 70.9826 73.1442 72.8754C64.7624 78.1963 54.6248 77.2443 50.5014 70.749C47.4556 65.9511 48.5434 59.4706 52.6982 54.2667C42.9575 61.2678 39.9889 74.5477 46.3513 84.57C53.694 96.1366 70.0717 99.1487 82.7905 91.0746C92.2877 85.0455 96.6976 74.5206 96.1545 64.529C91.2787 69.4192 83.0016 71.2613 80.0988 65.9101Z" fill="url(#paint3_linear_187_3344)"/>
<defs>
<linearGradient id="paint0_linear_187_3344" x1="53.9292" y1="45.6508" x2="86.9971" y2="97.741" gradientUnits="userSpaceOnUse">
<stop stop-color="white" stop-opacity="0.16"/>
<stop offset="1" stop-color="white" stop-opacity="0"/>
</linearGradient>
<linearGradient id="paint1_linear_187_3344" x1="77.6217" y1="48.212" x2="88.5249" y2="48.3913" gradientUnits="userSpaceOnUse">
<stop stop-color="#C2F5FF"/>
<stop offset="1" stop-color="#8EEDFF"/>
</linearGradient>
<linearGradient id="paint2_linear_187_3344" x1="39.9746" y1="54.97" x2="79.6534" y2="68.4785" gradientUnits="userSpaceOnUse">
<stop stop-color="#C2F5FF"/>
<stop offset="1" stop-color="#F5FDFF"/>
</linearGradient>
<linearGradient id="paint3_linear_187_3344" x1="51.5956" y1="60.9631" x2="91.9169" y2="78.2678" gradientUnits="userSpaceOnUse">
<stop stop-color="#C2F5FF"/>
<stop offset="1" stop-color="#8EEDFF"/>
</linearGradient>
</defs>
</svg>
