<svg width="137" height="136" viewBox="0 0 137 136" fill="none" xmlns="http://www.w3.org/2000/svg">
<path opacity="0.2" d="M103.886 102.485C84.7217 121.97 53.3881 122.227 33.901 103.061C14.4244 83.9018 14.1657 52.5674 33.3306 33.085C52.4938 13.5962 83.8276 13.3354 103.308 32.4974C122.794 51.6625 123.05 82.9987 103.885 102.485L103.886 102.485Z" fill="#F7931A"/>
<path fill-rule="evenodd" clip-rule="evenodd" d="M84.3714 70.4009C87.2159 66.8909 85.5054 63.0938 82.3122 59.3506L86.6864 54.9032L83.9782 52.2404L79.7193 56.5706C79.0085 55.8713 78.2672 55.1698 77.5303 54.4734L81.818 50.115L79.1124 47.4537L74.7383 51.8988C74.1405 51.3343 73.5542 50.7791 72.9926 50.2274L73.0058 50.2133L69.2734 46.5396L66.4303 49.4315C66.4303 49.4315 68.4669 51.3597 68.3974 51.3638C69.4936 52.4426 69.2253 53.4307 68.7879 54.0816L63.8048 59.1483C63.8801 59.2231 63.9757 59.3233 64.0724 59.4486L63.787 59.1682L56.8043 66.2646C56.4167 66.5623 55.6727 66.913 54.9053 66.1608C54.9098 66.2256 52.938 64.2248 52.938 64.2248L49.2198 66.9296L52.7436 70.395C53.1411 70.7869 53.5309 71.1787 53.9164 71.5662L53.9169 71.5667C54.1664 71.8175 54.4141 72.0665 54.6609 72.3125L50.2374 76.8125L52.9411 79.4727L57.3193 75.0228C58.0458 75.7679 58.7585 76.4805 59.4606 77.1699L55.1023 81.5986L57.8096 84.2609L62.2267 79.7718C67.0347 83.9871 71.3486 85.9742 75.9455 82.0893C79.6497 78.962 79.5422 75.8347 77.5694 72.6724C79.9261 73.4152 82.2924 72.9722 84.3705 70.4003L84.3714 70.4009ZM71.1233 76.2928C68.0894 79.3788 63.3088 74.5428 61.1235 72.3321C60.9278 72.1341 60.7529 71.9572 60.6019 71.8089L66.4643 65.8501C66.6487 66.0315 66.8779 66.2466 67.1375 66.4901L67.1376 66.4902C69.4614 68.6704 74.2239 73.1385 71.1242 76.2934L71.1233 76.2928ZM69.5876 63.5656C71.4079 65.4156 75.3757 69.4482 78.1335 66.6459C80.9543 63.7787 76.9732 60.0657 75.0289 58.2524C74.8104 58.0485 74.6175 57.8686 74.463 57.7167L69.1465 63.1216C69.2741 63.247 69.4219 63.3973 69.5876 63.5656Z" fill="#F7931A"/>
</svg>
