<svg width="134" height="134" viewBox="0 0 134 134" fill="none" xmlns="http://www.w3.org/2000/svg">
<path opacity="0.2" d="M110.44 44.1394C122.882 68.3203 113.366 98.009 89.1858 110.451C65.0049 122.893 35.3162 113.377 22.874 89.196C10.432 65.0154 19.948 35.3268 44.1289 22.8846C68.3093 10.4427 97.9978 19.9587 110.44 44.1394Z" fill="#505050"/>
<g opacity="0.8">
<path d="M56.0654 46.4243L56.2679 47.4827L69.9921 74.1551L70.4014 74.2859L79.0168 60.5969L56.0654 46.4243Z" fill="white"/>
<path d="M56.0647 46.4243L54.254 73.3381L70.4008 74.286L63.7395 61.34L56.0647 46.4243Z" fill="white"/>
<path d="M72.4728 78.3145L72.416 78.5786L77.3049 88.08L77.6863 88.4466L81.0975 64.6253L72.4728 78.3145Z" fill="white"/>
<path d="M77.6865 88.4465L72.473 78.3142L56.3281 77.3701L77.6865 88.4465Z" fill="white"/>
<path d="M70.4015 74.2857L79.0167 60.5968L63.7402 61.3398L70.4015 74.2857Z" fill="white"/>
<path d="M54.253 73.3384L70.3996 74.2863L63.7383 61.3404L54.253 73.3384Z" fill="white"/>
</g>
</svg>
