<svg width="119" height="119" viewBox="0 0 119 119" fill="none" xmlns="http://www.w3.org/2000/svg">
<circle cx="59.4628" cy="59.4629" r="49.5" transform="rotate(13.1494 59.4628 59.4629)" fill="#FF1A1A" fill-opacity="0.2"/>
<path d="M50.1699 31.1055L66.4348 34.9052C69.6548 35.6574 72.0244 36.3533 73.5432 36.9925C75.062 37.6318 76.3461 38.5251 77.3955 39.6723C78.4465 40.82 79.2212 42.2022 79.7198 43.819C80.2184 45.4359 80.2626 47.1281 79.8513 48.8953C79.4263 50.7698 78.4614 52.4784 77.0768 53.8075C75.6763 55.1677 74.0039 56.042 72.0589 56.4303C74.3691 57.7352 75.986 59.4174 76.91 61.4768C77.8339 63.5363 78.02 65.7472 77.4676 68.1095C77.0331 69.9695 76.1805 71.678 74.9096 73.2346C73.6386 74.7911 72.1358 75.9211 70.4004 76.6232C68.6654 77.326 66.6781 77.5432 64.4379 77.2751C63.0336 77.1045 59.7088 76.4256 54.4634 75.2394L40.6153 72.0042L50.1699 31.1055ZM56.7956 39.8318L54.5856 49.2916L59.9704 50.5496C63.1716 51.2974 65.1714 51.7155 65.9704 51.804C67.4158 51.9654 68.6356 51.7356 69.6293 51.1143C70.6229 50.4931 71.2742 49.5223 71.5832 48.2019C71.8785 46.9378 71.7718 45.8293 71.2625 44.8763C70.7532 43.9233 69.8343 43.2035 68.5055 42.7168C67.7129 42.4338 65.383 41.8406 61.5157 40.9371L56.7956 39.8318ZM52.996 56.096L50.4413 67.0315L58.0463 68.8082C61.0071 69.4999 62.905 69.8551 63.7395 69.8738C65.013 69.936 66.1343 69.6245 67.1042 68.9402C68.074 68.2559 68.7283 67.1878 69.0675 65.736C69.3542 64.5085 69.3015 63.3977 68.9092 62.4038C68.5169 61.4097 67.8069 60.5859 66.779 59.9323C65.7491 59.2808 63.3661 58.5186 59.6296 57.6457L52.996 56.096Z" fill="white"/>
<path d="M73.7874 83.8616L39.7051 75.8994L38.1126 82.7159L72.195 90.678L73.7874 83.8616Z" fill="#ED1C24"/>
</svg>
