<svg width="117" height="117" viewBox="0 0 117 117" fill="none" xmlns="http://www.w3.org/2000/svg">
<path opacity="0.2" d="M37.3466 95.3622C57.7048 107.045 83.679 100.012 95.3616 79.6534C107.044 59.2952 100.011 33.321 79.6529 21.6385C59.2946 9.95593 33.3204 16.989 21.6379 37.3472C9.95534 57.7054 16.9884 83.6796 37.3466 95.3622Z" fill="#3391F6"/>
<mask id="mask0_187_3275" style="mask-type:alpha" maskUnits="userSpaceOnUse" x="15" y="15" width="87" height="87">
<path d="M37.3466 95.3622C57.7048 107.045 83.679 100.012 95.3616 79.6534C107.044 59.2952 100.011 33.321 79.6529 21.6385C59.2946 9.95593 33.3204 16.989 21.6379 37.3472C9.95534 57.7054 16.9884 83.6796 37.3466 95.3622Z" fill="white"/>
</mask>
<g mask="url(#mask0_187_3275)">
<path fill-rule="evenodd" clip-rule="evenodd" d="M52.3022 81.9225C49.344 80.2249 47.5751 78.3127 47.0202 76.143C46.4654 73.9733 46.6467 72.1401 47.5695 70.5321C47.895 69.9649 48.2937 69.5258 48.7779 69.2787C49.2252 69.0106 49.7303 68.8805 50.2586 68.8974C50.7869 68.9143 51.3771 69.0621 51.9658 69.3999C52.5545 69.7377 53.0005 70.1368 53.261 70.6203C53.5422 71.068 53.6847 71.5696 53.6789 72.0912C53.6731 72.6127 53.536 73.1925 53.2064 73.7668C52.7986 74.4775 52.2851 74.9463 51.7108 75.1798C51.1325 75.4205 50.5171 75.4872 49.9564 75.3563C50.0563 76.1198 50.4846 76.8905 51.2161 77.6443C51.9477 78.398 52.7616 79.0082 53.6446 79.515C54.8883 80.2287 56.1701 80.5348 57.5229 80.4618C58.8756 80.3887 60.1562 79.8448 61.3513 78.8702C62.5465 77.8955 63.5755 76.5966 64.4983 74.9885C65.4994 73.244 66.0822 71.6317 66.2707 70.1271C66.4724 68.5824 66.2753 67.2382 65.6146 66.1052C64.9746 64.9364 64.0797 64.0411 62.9096 63.3697C62.1443 62.9305 61.0464 62.7299 59.5671 62.6826L56.9546 62.4622L57.5272 61.4643L73.7974 54.6925L60.9047 47.294L53.683 59.8786C53.0898 60.9123 52.8203 61.8933 52.8999 62.8456C52.991 63.7949 53.5342 64.536 54.4835 65.0808C55.2488 65.5199 56.0921 65.6699 57.0681 65.5715C58.0482 65.4659 58.9829 65.2007 59.8779 64.8173C60.0339 64.7159 60.1693 64.6505 60.2635 64.6568C60.4151 64.6483 60.5092 64.6547 60.6196 64.718C60.8036 64.8236 60.9464 65.001 61.0936 65.324C61.1702 65.702 61.1199 66.0453 60.9345 66.3683C60.8521 66.5119 60.6549 66.685 60.4575 66.9439C59.2667 67.8256 58.0274 68.2978 56.732 68.356C55.4367 68.4143 54.2284 68.1504 53.0952 67.5C50.2841 65.8869 48.683 64.2619 48.2003 62.5631C47.7544 60.8853 48.0503 59.1083 49.0925 57.2921L56.3348 44.6716L49.7559 40.8963L51.1072 38.5416L57.7228 42.338L60.7919 36.9897L60.1311 34.6638L60.8273 33.4505L65.2132 35.9674L66.3846 37.7275L62.2691 44.8992L79.355 54.6562L80.0936 57.2558L63.7767 61.5006C64.5391 61.6041 65.2838 61.8406 66.0167 62.1657C67.15 62.816 68.2244 63.9098 69.2001 65.4144C70.2405 66.9084 70.7849 68.4996 70.854 70.152C70.9231 71.8045 70.7832 73.2415 70.3696 74.4737C69.9559 75.706 69.5511 76.7524 69.0403 77.6426C67.9156 79.6024 66.4318 81.1653 64.6289 82.3638C62.8301 83.555 60.8123 84.1053 58.5912 83.9186C56.3996 83.7489 54.3112 83.0753 52.3022 81.9225Z" fill="#3391F6"/>
</g>
</svg>
