<?xml version="1.0" encoding="UTF-8" standalone="no"?>
<!-- Created with Inkscape (http://www.inkscape.org/) -->

<svg
   width="312.39771mm"
   height="58.756859mm"
   viewBox="0 0 312.39771 58.756859"
   version="1.1"
   id="svg2255"
   inkscape:version="1.2.2 (b0a8486541, 2022-12-01)"
   sodipodi:docname="social_media_custom.svg"
   xmlns:inkscape="http://www.inkscape.org/namespaces/inkscape"
   xmlns:sodipodi="http://sodipodi.sourceforge.net/DTD/sodipodi-0.dtd"
   xmlns="http://www.w3.org/2000/svg"
   xmlns:svg="http://www.w3.org/2000/svg">
  <sodipodi:namedview
     id="namedview2257"
     pagecolor="#ffffff"
     bordercolor="#000000"
     borderopacity="0.25"
     inkscape:showpageshadow="2"
     inkscape:pageopacity="0.0"
     inkscape:pagecheckerboard="0"
     inkscape:deskcolor="#d1d1d1"
     inkscape:document-units="mm"
     showgrid="false"
     inkscape:zoom="0.66331437"
     inkscape:cx="897.76435"
     inkscape:cy="437.95222"
     inkscape:window-width="3440"
     inkscape:window-height="1420"
     inkscape:window-x="0"
     inkscape:window-y="20"
     inkscape:window-maximized="1"
     inkscape:current-layer="g2560" />
  <defs
     id="defs2252" />
  <g
     inkscape:groupmode="layer"
     id="layer2"
     inkscape:label="bg"
     transform="translate(51.687191,-27.049879)"
     sodipodi:insensitive="true">
    <rect
       style="fill:#000000;stroke-width:2.103;stroke-linecap:round;paint-order:stroke fill markers"
       id="rect2482"
       width="312.39771"
       height="58.756859"
       x="-51.687191"
       y="27.049879" />
  </g>
  <g
     inkscape:label="Layer 1"
     inkscape:groupmode="layer"
     id="layer1"
     transform="translate(51.687191,-27.049879)">
    <g
       id="g2560"
       transform="translate(1.4506872,-8.7027784)"
       inkscape:label="icons_group">
      <g
         id="g1958"
         transform="matrix(0.95225157,0,0,0.95225157,5.1320766,116.06214)"
         inkscape:label="youtube"
         inkscape:export-filename="youtube.png"
         inkscape:export-xdpi="30.264503"
         inkscape:export-ydpi="30.264503">
        <path
           id="path3430"
           style="fill:#ffffff"
           class="style-scope yt-icon"
           d="m 15.060309,-63.64029 c 0,0 -8.9346154,-1.3e-5 -11.1618031,0.597352 -1.2299988,0.329257 -2.1966033,1.295852 -2.52586,2.52586 -0.5973651,2.227178 -0.5973523,6.8768 -0.5973523,6.8768 0,0 -1.28e-5,4.649602 0.5973523,6.8768 0.3292567,1.229998 1.2958612,2.196551 2.52586,2.52575 2.2271877,0.5974 11.1618031,0.597462 11.1618031,0.597462 0,0 8.934705,-6.2e-5 11.161803,-0.597462 1.229998,-0.329199 2.19666,-1.295752 2.525859,-2.52575 0.5974,-2.227198 0.597462,-6.8768 0.597462,-6.8768 0,0 -0.0025,-4.649622 -0.597462,-6.8768 -0.329199,-1.230008 -1.295861,-2.196603 -2.525859,-2.52586 -2.227098,-0.597365 -11.161803,-0.597352 -11.161803,-0.597352 z m -2.859684,5.715336 7.422383,4.285003 -7.422383,4.285003 z"
           inkscape:export-filename="youtube.png"
           inkscape:export-xdpi="10.71"
           inkscape:export-ydpi="10.71" />
        <rect
           style="fill:none;stroke:none;stroke-width:0.443525;stroke-linecap:round;paint-order:stroke fill markers"
           id="rect1453-6"
           width="35.254005"
           height="35.254005"
           x="-2.5666397"
           y="-71.267281"
           inkscape:export-filename="facebook.png"
           inkscape:export-xdpi="6.0799999"
           inkscape:export-ydpi="6.0799999" />
      </g>
      <g
         id="g1473"
         transform="matrix(0.95225157,0,0,0.95225157,110.80156,112.98836)"
         inkscape:label="threads"
         inkscape:export-filename="threads.png"
         inkscape:export-xdpi="30.264503"
         inkscape:export-ydpi="30.264503">
        <rect
           style="fill:none;stroke:none;stroke-width:0.443525;stroke-linecap:round;paint-order:stroke fill markers"
           id="rect1453"
           width="35.254005"
           height="35.254005"
           x="-78.423096"
           y="-68.039383"
           inkscape:export-filename="facebook.png"
           inkscape:export-xdpi="6.0799999"
           inkscape:export-ydpi="6.0799999" />
        <path
           style="fill:#ffffff;stroke:#ffffff;stroke-width:0.355581"
           d="m -64.887676,-37.515455 c -5.217727,-1.864537 -7.441358,-5.657832 -7.453211,-12.714397 -0.01274,-7.408056 2.465321,-11.48172 7.979648,-13.119301 3.941203,-1.170412 8.871341,-0.284015 11.650231,2.09461 1.496841,1.281247 3.892671,5.440606 3.39222,5.889199 -0.149303,0.133819 -0.672344,0.337224 -1.162313,0.451989 -0.789353,0.184861 -0.965611,0.02804 -1.546953,-1.377653 -0.830314,-2.007506 -3.298273,-4.199811 -5.385861,-4.7843 -2.188717,-0.612827 -6.020692,-0.299818 -7.866074,0.642535 -3.134689,1.600697 -4.411697,4.108788 -4.664532,9.161313 -0.225007,4.496367 0.411206,6.992338 2.322733,9.112482 1.888816,2.094967 3.575151,2.75876 7.008524,2.75876 4.956787,0 8.004385,-2.272016 7.999249,-5.963519 -0.0014,-0.969391 -1.185425,-3.26703 -1.682454,-3.264717 -0.149559,7.14e-4 -0.671943,0.834865 -1.160867,1.853711 -1.105777,2.304279 -2.281185,3.173414 -4.591951,3.395451 -3.310923,0.318107 -5.719905,-1.510025 -5.719905,-4.340799 0,-2.901621 2.224382,-4.576256 6.133666,-4.617753 2.625171,-0.02804 2.842117,-0.256805 1.663312,-1.75543 -0.610851,-0.776545 -1.025231,-0.936905 -2.421109,-0.936905 -0.930328,0 -1.99308,0.233674 -2.374362,0.522085 -0.864171,0.653623 -1.226227,0.654604 -2.083892,0.0057 -0.672663,-0.508958 -0.672676,-0.527247 -8.54e-4,-1.269636 1.063478,-1.175108 2.45717,-1.747152 4.256665,-1.747152 3.098934,0 5.209361,1.705203 5.721052,4.622558 0.159755,0.91093 0.606009,1.530512 1.664778,2.311403 2.055968,1.516398 2.899327,3.127023 2.884384,5.508509 -0.01975,3.113463 -1.924565,5.802089 -5.127795,7.23703 -2.27292,1.018189 -7.034523,1.181876 -9.434329,0.324287 z m 6.576645,-8.971749 c 0.79953,-0.79953 1.250347,-2.241505 0.947502,-3.030693 -0.139172,-0.362713 -0.705098,-0.534192 -1.763192,-0.534192 -3.634056,0 -5.555052,1.79859 -3.797825,3.555817 0.977502,0.977496 3.639843,0.982715 4.613515,0.0089 z"
           id="path692"
           inkscape:export-filename="threads.png"
           inkscape:export-xdpi="50.759998"
           inkscape:export-ydpi="50.759998" />
      </g>
      <g
         id="g1499"
         transform="matrix(0.95225157,0,0,0.95225157,68.306639,64.392821)"
         inkscape:label="facebook"
         inkscape:export-filename="facebook.png"
         inkscape:export-xdpi="30.264503"
         inkscape:export-ydpi="30.264503">
        <path
           style="fill:#ffffff;stroke-width:0.0558008"
           d="m -87.900794,14.055456 c -0.06138,-0.01068 -0.406648,-0.04946 -0.767261,-0.08618 l -0.65566,-0.06676 V 8.0500975 2.1976777 h -2.120432 -2.120432 V -0.22965832 -2.6569943 h 2.120432 2.120432 v -2.191647 c 0,-1.205406 0.02644,-2.404426 0.05875,-2.66449 0.299009,-2.406738 1.60577,-4.1799077 3.620028,-4.9120887 1.035698,-0.376475 1.321945,-0.415086 2.989426,-0.403232 1.21334,0.0086 1.69128,0.03564 2.45524,0.138759 l 0.94861,0.12805 0.0146,2.071874 0.0146,2.0718747 -1.40964,0.02687 c -1.21568,0.02317 -1.45736,0.0424 -1.7564,0.139736 -0.70477,0.229392 -1.1272,0.589565 -1.41568,1.207042 -0.22931,0.49082 -0.27195,0.920854 -0.27319,2.755076 l -0.001,1.632175 h 2.31573 c 2.16826,0 2.31574,0.0062 2.31575,0.09765 10e-6,0.104535 -0.65162,4.421075 -0.69917,4.63147 l -0.0284,0.125551 h -1.95197 -1.95196 v 5.8512098 5.8512085 l -0.571964,0.06999 c -0.529189,0.06476 -2.996458,0.129562 -3.250399,0.08537 z"
           id="path1399" />
        <rect
           style="fill:none;stroke:none;stroke-width:0.443525;stroke-linecap:round;paint-order:stroke fill markers"
           id="rect1453-3"
           width="35.254005"
           height="35.254005"
           x="-104.02052"
           y="-17.007124"
           inkscape:export-filename="facebook.png"
           inkscape:export-xdpi="6.0799999"
           inkscape:export-ydpi="6.0799999" />
      </g>
      <g
         id="g1987"
         transform="matrix(0.95225157,0,0,0.95225157,144.23662,112.98836)"
         inkscape:label="tiktok"
         inkscape:export-filename="tiktok.png"
         inkscape:export-xdpi="30.264503"
         inkscape:export-ydpi="30.264503">
        <rect
           style="fill:none;stroke:none;stroke-width:0.443525;stroke-linecap:round;paint-order:stroke fill markers"
           id="rect1983"
           width="35.254005"
           height="35.254005"
           x="-78.423096"
           y="-68.039383"
           inkscape:export-filename="facebook.png"
           inkscape:export-xdpi="6.0799999"
           inkscape:export-ydpi="6.0799999" />
        <path
           style="fill:#ffffff;stroke-width:0.0567486"
           d="m -65.607392,-37.007702 c 0,-0.02497 -0.159606,-0.07785 -0.354684,-0.117516 -2.70087,-0.549196 -5.142103,-2.736683 -6.107721,-5.472889 -0.32569,-0.922889 -0.416954,-1.524454 -0.423514,-2.791376 -0.0061,-1.264875 0.07129,-1.752327 0.44421,-2.782604 0.858895,-2.372783 2.727525,-4.24629 5.111359,-5.124675 1.03341,-0.380788 2.39371,-0.564614 3.450419,-0.466278 0.359616,0.03347 0.695516,0.07683 0.746437,0.09637 0.08441,0.03239 0.08929,0.248999 0.05573,2.453894 -0.02024,1.330104 -0.04556,2.447077 -0.05634,2.482165 -0.01424,0.04649 -0.09499,0.04421 -0.297865,-0.0084 -0.88971,-0.230786 -1.875556,-0.131637 -2.681568,0.269691 -0.633714,0.315535 -1.355987,1.01518 -1.656283,1.604389 -0.357226,0.700937 -0.413343,0.939619 -0.413608,1.759209 -1.73e-4,0.60349 0.02258,0.810017 0.125028,1.134973 0.35981,1.141041 1.379491,2.164753 2.53083,2.540851 0.424805,0.138764 1.483325,0.164851 1.967715,0.04849 0.445775,-0.107081 1.287321,-0.528802 1.60339,-0.803509 0.360196,-0.313057 0.735107,-0.808703 0.987523,-1.305569 0.188682,-0.371405 0.21075,-0.465157 0.251419,-1.067943 0.02451,-0.363437 0.04627,-4.736749 0.04821,-9.718471 0.002,-4.981723 0.01993,-9.176454 0.03976,-9.321626 l 0.0362,-0.263948 2.191198,0.01485 2.191207,0.01485 0.0357,0.397241 c 0.04475,0.497943 0.19455,1.237476 0.342979,1.69358 0.508391,1.562223 1.565832,2.832286 3.003657,3.607603 0.763888,0.411911 2.002607,0.797538 3.01583,0.938865 0.216892,0.03025 0.275654,0.06272 0.30175,0.166692 0.04546,0.181172 0.0051,4.329183 -0.04261,4.376799 -0.05553,0.05538 -1.325793,-0.07363 -2.032273,-0.206372 -1.390718,-0.26131 -2.810704,-0.836193 -4.095482,-1.658054 l -0.319548,-0.204413 -0.02807,5.119675 c -0.03041,5.541458 -0.02248,5.395398 -0.353677,6.538392 -0.528111,1.822665 -1.608068,3.383925 -3.119645,4.509979 -0.86697,0.645856 -2.213367,1.250929 -3.179768,1.428996 -0.201861,0.03719 -0.36702,0.08875 -0.36702,0.114565 0,0.02582 -0.663959,0.04694 -1.475463,0.04694 -0.811504,0 -1.475463,-0.02043 -1.475463,-0.0454 z"
           id="path1972" />
      </g>
      <g
         id="g2041"
         transform="matrix(0.95225157,0,0,0.95225157,177.67168,112.98836)"
         inkscape:label="instagram"
         inkscape:export-filename="instagram.png"
         inkscape:export-xdpi="30.264503"
         inkscape:export-ydpi="30.264503">
        <rect
           style="fill:none;stroke:none;stroke-width:0.443525;stroke-linecap:round;paint-order:stroke fill markers"
           id="rect2037"
           width="35.254005"
           height="35.254005"
           x="-78.423096"
           y="-68.039383"
           inkscape:export-filename="facebook.png"
           inkscape:export-xdpi="6.0799999"
           inkscape:export-ydpi="6.0799999" />
        <path
           style="fill:#ffffff;stroke-width:0.0354385"
           d="m -63.919104,-36.967718 c -0.0077,-0.0067 -0.524387,-0.02267 -1.148108,-0.03556 -0.623716,-0.01289 -1.181877,-0.02991 -1.24035,-0.03785 -0.05849,-0.0079 -0.268319,-0.02331 -0.466327,-0.03423 -1.388433,-0.07643 -2.717085,-0.446023 -3.808582,-1.059457 -0.858108,-0.482268 -1.778709,-1.36348 -2.350455,-2.249887 -0.252054,-0.390778 -0.565401,-1.067053 -0.742166,-1.601786 -0.390885,-1.182448 -0.501295,-2.120685 -0.548412,-4.660167 -0.02864,-1.543997 -0.02217,-7.69441 0.0088,-8.301478 0.01219,-0.238767 0.03074,-0.629477 0.04122,-0.868244 0.09275,-2.105747 0.550902,-3.684601 1.426221,-4.914952 0.277782,-0.390452 0.93169,-1.082219 1.316052,-1.392253 0.935913,-0.754917 2.121003,-1.263002 3.493508,-1.497781 0.439965,-0.07526 0.749298,-0.10806 1.665612,-0.176616 1.11476,-0.0834 10.299364,-0.08709 10.844195,-0.0044 0.05849,0.0089 0.281739,0.02517 0.496139,0.0362 1.905777,0.09804 3.561063,0.667696 4.766489,1.640361 0.366618,0.295831 1.039128,0.999762 1.285212,1.345268 0.696192,0.977465 1.131159,2.130822 1.334203,3.537724 0.157064,1.088331 0.195798,2.443617 0.195487,6.839639 -2.86e-4,4.232964 -0.03639,5.599836 -0.176809,6.697881 -0.18993,1.485125 -0.725406,2.847704 -1.518023,3.8628 -0.224987,0.28814 -0.798086,0.865157 -1.10747,1.115046 -0.794878,0.642018 -1.772294,1.109273 -2.897128,1.384984 -0.70648,0.173164 -1.4501,0.264414 -2.448976,0.300525 -0.331351,0.012 -0.6503,0.0296 -0.708773,0.03919 -0.119517,0.01956 -7.689539,0.05392 -7.711526,0.03499 z m 8.136789,-2.435741 c 1.61283,-0.07279 2.456692,-0.242541 3.331225,-0.670096 0.488568,-0.238857 0.731763,-0.412992 1.143968,-0.819132 0.372067,-0.366586 0.59593,-0.665815 0.817322,-1.092462 0.443376,-0.854425 0.635427,-1.789639 0.709847,-3.456597 0.04388,-0.983195 0.04731,-8.735805 0.0044,-9.781461 -0.08538,-2.076771 -0.322486,-3.083966 -0.950951,-4.03957 -0.199831,-0.303849 -0.754309,-0.883096 -1.067542,-1.115234 -0.823522,-0.61031 -1.828113,-0.910679 -3.456642,-1.033523 -0.663008,-0.05001 -9.465847,-0.07313 -10.489809,-0.02755 -1.610118,0.07167 -2.496652,0.239632 -3.332614,0.631379 -0.450279,0.211005 -0.769647,0.43479 -1.157636,0.811157 -0.433137,0.420163 -0.64882,0.701275 -0.87568,1.141314 -0.435265,0.844276 -0.642895,1.843742 -0.695709,3.348942 -0.01232,0.350841 -0.02833,0.701683 -0.03557,0.779648 -0.0181,0.195144 -0.01823,8.479428 -1.08e-4,8.611564 0.008,0.05849 0.02426,0.401345 0.03614,0.76193 0.02312,0.704232 0.03023,0.794453 0.111573,1.417546 0.129526,0.992118 0.489108,1.945305 0.968048,2.566099 0.356984,0.46272 0.966696,0.984465 1.441489,1.233528 0.898226,0.471173 1.848085,0.664933 3.540085,0.722123 0.389824,0.01315 0.715054,0.0294 0.722732,0.03607 0.03055,0.02655 8.606597,0.0025 9.2355,-0.02572 z m -5.596049,-4.143655 c -3.004133,-0.265157 -5.500048,-2.447484 -6.149662,-5.377004 -0.509165,-2.29613 0.193143,-4.701856 1.858907,-6.367617 1.058968,-1.05897 2.372461,-1.720162 3.879973,-1.953124 0.495992,-0.07665 1.487368,-0.07692 1.98456,-5.53e-4 3.037215,0.466523 5.383275,2.807792 5.826447,5.814553 0.475301,3.224704 -1.363786,6.33116 -4.426626,7.477167 -0.904343,0.338375 -2.019249,0.490816 -2.973599,0.406584 z m 1.044533,-2.387233 c 0.45856,-0.0329 0.968537,-0.174738 1.471312,-0.409144 1.212393,-0.565242 2.137394,-1.711694 2.460585,-3.049652 0.110131,-0.455927 0.137364,-1.295959 0.05703,-1.759017 -0.241963,-1.394553 -1.064855,-2.548155 -2.307929,-3.23545 -0.633254,-0.350127 -1.371368,-0.533946 -2.144031,-0.533946 -1.26835,0 -2.413411,0.4895 -3.269829,1.397816 -0.555513,0.589173 -0.898404,1.216472 -1.114951,2.039723 -0.121092,0.460377 -0.152682,1.352264 -0.06464,1.825085 0.07192,0.386232 0.258703,0.959206 0.412097,1.264145 0.366643,0.728862 0.999904,1.410135 1.719404,1.849757 0.523783,0.320041 1.323615,0.575677 1.941386,0.620502 0.330857,0.02401 0.375802,0.0235 0.83957,-0.0098 z m 6.437383,-10.086009 c -0.466676,-0.08177 -0.930273,-0.433345 -1.145403,-0.868635 -0.300715,-0.608453 -0.202714,-1.291958 0.256329,-1.787779 0.309714,-0.334527 0.702199,-0.504498 1.164957,-0.504498 0.619067,0 1.138629,0.319043 1.412752,0.867527 0.367076,0.734451 0.148326,1.581031 -0.52891,2.046985 -0.29075,0.20004 -0.803077,0.30889 -1.159725,0.2464 z"
           id="path2026" />
      </g>
      <g
         id="g2074"
         transform="matrix(0.95225157,0,0,0.95225157,211.10674,112.98836)"
         inkscape:label="discord"
         inkscape:export-filename="discord.png"
         inkscape:export-xdpi="30.264503"
         inkscape:export-ydpi="30.264503">
        <rect
           style="fill:none;stroke:none;stroke-width:0.443525;stroke-linecap:round;paint-order:stroke fill markers"
           id="rect2070"
           width="35.254005"
           height="35.254005"
           x="-78.423096"
           y="-68.039383"
           inkscape:export-filename="facebook.png"
           inkscape:export-xdpi="6.0799999"
           inkscape:export-ydpi="6.0799999" />
        <path
           style="fill:#ffffff;stroke-width:0.0100394"
           d="m -67.825998,-40.281703 c -1.080497,-0.360992 -1.937419,-0.714245 -2.91643,-1.202244 -0.867225,-0.432277 -1.59011,-0.850199 -2.395196,-1.384739 -0.452552,-0.300479 -0.96954,-0.667254 -0.987307,-0.700448 -0.005,-0.0095 -0.01853,-0.125518 -0.02989,-0.257819 -0.241552,-2.814635 -0.0029,-5.544302 0.707715,-8.094333 0.401953,-1.442416 0.907354,-2.748024 1.601912,-4.138217 0.29912,-0.598712 0.497095,-0.964915 0.824956,-1.525987 0.283303,-0.484814 0.831697,-1.351078 0.88145,-1.39237 0.02055,-0.01704 0.449846,-0.206849 0.766726,-0.338982 1.411649,-0.588621 2.897692,-1.032624 4.401906,-1.315226 0.162696,-0.03056 0.31241,-0.05554 0.332696,-0.05554 0.02067,0 0.04584,0.0077 0.05726,0.01757 0.05532,0.04767 0.431976,0.786889 0.640729,1.257425 0.05786,0.130415 0.07728,0.165159 0.09131,0.163349 0.0098,-0.0015 0.130763,-0.01795 0.268804,-0.03705 0.555587,-0.07695 1.09374,-0.128162 1.756885,-0.167215 0.28935,-0.01704 1.415463,-0.02345 1.758118,-0.01001 0.764939,0.03002 1.538466,0.09977 2.220546,0.200195 l 0.12355,0.01818 0.01342,-0.02605 c 0.0074,-0.01429 0.04569,-0.09947 0.08511,-0.189255 0.200656,-0.456952 0.562646,-1.176491 0.611074,-1.214651 0.0249,-0.01963 0.07023,-0.01551 0.307633,0.02811 1.715758,0.315245 3.424005,0.848036 5.042423,1.572702 l 0.212879,0.09532 0.189856,0.287622 c 2.339911,3.544785 3.616626,7.253492 3.871268,11.245565 0.03446,0.540231 0.04057,0.7619 0.04049,1.470767 -9.9e-5,0.877961 -0.01658,1.273384 -0.09034,2.163477 -0.0085,0.102156 -0.01971,0.202021 -0.02506,0.221936 -0.0088,0.03277 -0.03736,0.056 -0.302924,0.245964 -1.609808,1.151449 -3.289883,2.055201 -5.087891,2.736886 -0.507338,0.192341 -1.331958,0.469619 -1.396671,0.469619 -0.04665,0 -0.05112,-0.0053 -0.262406,-0.31122 -0.384581,-0.556824 -0.764498,-1.182099 -1.090126,-1.79415 -0.09361,-0.175962 -0.107012,-0.219378 -0.07937,-0.257185 0.0069,-0.0095 0.134536,-0.06624 0.283611,-0.126122 0.32326,-0.129918 0.523134,-0.217285 0.83325,-0.364216 0.38143,-0.180721 1.003218,-0.516129 1.041583,-0.561851 0.0097,-0.01154 0.01756,-0.03575 0.01756,-0.05386 0,-0.04087 -0.01274,-0.05523 -0.125492,-0.14111 -0.0497,-0.03789 -0.145218,-0.112874 -0.212272,-0.166703 -0.06705,-0.05386 -0.133381,-0.100743 -0.14739,-0.104257 -0.01893,-0.0046 -0.06368,0.01092 -0.174243,0.06104 -2.021856,0.916014 -4.152071,1.40781 -6.275284,1.448758 -0.382359,0.0076 -0.933537,-7.18e-4 -1.21727,-0.0178 -1.985158,-0.119689 -3.848025,-0.577215 -5.726347,-1.406427 -0.139913,-0.0618 -0.215472,-0.09008 -0.230185,-0.08625 -0.01203,0.0031 -0.07611,0.04928 -0.142373,0.102569 -0.06626,0.05325 -0.16422,0.130117 -0.217691,0.170767 -0.18921,0.143823 -0.182944,0.162699 0.107258,0.323077 0.586803,0.324283 1.128903,0.583593 1.674344,0.8009 0.252624,0.100652 0.288348,0.122043 0.288348,0.172685 0,0.05676 -0.379259,0.746492 -0.678108,1.233261 -0.200487,0.32656 -0.667686,1.015121 -0.719586,1.060531 -0.01137,0.0099 -0.03592,0.01749 -0.05662,0.01734 -0.02009,-9.9e-5 -0.230797,-0.06509 -0.468227,-0.144419 z m 2.846156,-6.405653 c 0.504429,-0.06822 0.929357,-0.278447 1.308741,-0.647553 0.38501,-0.374582 0.659719,-0.884431 0.76833,-1.425991 0.04542,-0.226467 0.05324,-0.303772 0.0584,-0.57726 0.0057,-0.299807 -0.0068,-0.458267 -0.05353,-0.682679 -0.0548,-0.262961 -0.117875,-0.445241 -0.2397,-0.692716 -0.137276,-0.278852 -0.293004,-0.496022 -0.511195,-0.712878 -0.438754,-0.436058 -1.011582,-0.677568 -1.607125,-0.677568 -0.685666,0 -1.338403,0.325591 -1.79739,0.896556 -0.161924,0.201432 -0.341642,0.519566 -0.431149,0.763215 -0.285873,0.778203 -0.242079,1.654047 0.118772,2.37529 0.130371,0.260571 0.282373,0.475815 0.478179,0.677117 0.40174,0.41301 0.858981,0.6439 1.410723,0.712365 0.08132,0.01008 0.401529,0.0053 0.496947,-0.0079 z m 8.94506,0 c 0.521082,-0.07044 0.973738,-0.301518 1.350694,-0.689493 0.136364,-0.140347 0.200644,-0.219813 0.30795,-0.38071 0.239634,-0.359304 0.394078,-0.782741 0.456272,-1.250978 0.02167,-0.163134 0.02469,-0.601156 0.0052,-0.756301 -0.0691,-0.550345 -0.274294,-1.04558 -0.60109,-1.450682 -0.103483,-0.128276 -0.311885,-0.330984 -0.435687,-0.423774 -0.405111,-0.30365 -0.877028,-0.464707 -1.361606,-0.464707 -0.591337,0 -1.137381,0.228408 -1.582452,0.661945 -0.453833,0.442063 -0.727398,1.010155 -0.81607,1.69466 -0.02267,0.175007 -0.02257,0.543493 1.81e-4,0.720456 0.04638,0.360556 0.128148,0.632234 0.287046,0.953738 0.143366,0.290073 0.294509,0.50159 0.516642,0.723007 0.368358,0.367172 0.84397,0.604343 1.335796,0.666115 0.113768,0.01429 0.421045,0.01238 0.537103,-0.0031 z"
           id="path2068" />
      </g>
      <g
         id="g2125"
         transform="matrix(0.95225157,0,0,0.95225157,244.54179,113.28435)"
         inkscape:label="twitter"
         inkscape:export-filename="twitter.png"
         inkscape:export-xdpi="30.264503"
         inkscape:export-ydpi="30.264503">
        <rect
           style="fill:none;stroke:none;stroke-width:0.443525;stroke-linecap:round;paint-order:stroke fill markers"
           id="rect2121"
           width="35.254005"
           height="35.254005"
           x="-78.423096"
           y="-68.039383"
           inkscape:export-filename="facebook.png"
           inkscape:export-xdpi="6.0799999"
           inkscape:export-ydpi="6.0799999" />
        <path
           style="fill:#ffffff;stroke-width:0.0264608"
           d="m -67.48866,-36.975163 c -2.802287,-0.07369 -5.655374,-0.801848 -8.176396,-2.086751 -0.611776,-0.311809 -1.67757,-0.926282 -1.648921,-0.950671 0.0046,-0.0039 0.08575,0.0026 0.180346,0.0145 0.0946,0.01188 0.451818,0.03591 0.793824,0.05339 1.731183,0.08849 3.613393,-0.192784 5.241831,-0.783331 1.270281,-0.460662 2.465937,-1.102129 3.534198,-1.896092 l 0.260342,-0.193496 -0.370451,-0.03219 c -0.984499,-0.08555 -1.827842,-0.329117 -2.659311,-0.768035 -0.613176,-0.323684 -1.130093,-0.709951 -1.654199,-1.236108 -0.538863,-0.54097 -0.963355,-1.139969 -1.295122,-1.827541 -0.137491,-0.284943 -0.331823,-0.774352 -0.331823,-0.835668 0,-0.02081 0.02811,-0.02524 0.086,-0.01354 0.474183,0.09584 1.390427,0.122056 1.95546,0.05596 0.308089,-0.03604 0.940024,-0.155156 0.967176,-0.182308 0.0064,-0.0064 -0.06958,-0.03014 -0.168844,-0.05275 -1.134692,-0.258553 -2.267617,-0.87467 -3.132759,-1.703682 -1.071566,-1.026818 -1.761567,-2.32307 -2.008651,-3.773501 -0.04921,-0.288865 -0.121955,-1.174553 -0.09841,-1.198103 0.0056,-0.0056 0.169844,0.06651 0.364977,0.16025 0.63119,0.303225 1.356096,0.519745 2.035049,0.607845 0.348258,0.04519 0.670687,0.06605 0.641601,0.04151 -0.01087,-0.0092 -0.132892,-0.100977 -0.271149,-0.204002 -1.591287,-1.185777 -2.585073,-3.039094 -2.696902,-5.029463 -0.07065,-1.257444 0.208347,-2.538954 0.78298,-3.596434 l 0.118379,-0.21785 0.208586,0.24808 c 1.977139,2.35152 4.542555,4.224923 7.421568,5.41965 1.891096,0.784762 3.972816,1.265867 6.108685,1.411773 0.24721,0.01689 0.260033,0.01522 0.245271,-0.03185 -0.04666,-0.148731 -0.123345,-0.715849 -0.146566,-1.083673 -0.1568,-2.48365 1.061134,-4.84363 3.190312,-6.18184 0.305296,-0.19188 0.904809,-0.48452 1.26222,-0.61612 0.776292,-0.28583 1.722209,-0.43397 2.557264,-0.4005 1.71419,0.0687 3.243394,0.71839 4.495475,1.90991 l 0.241444,0.22976 0.257776,-0.058 c 1.298633,-0.29198 2.669981,-0.81343 3.743995,-1.42363 0.156448,-0.0889 0.284454,-0.15747 0.284454,-0.15239 0,0.0648 -0.206932,0.56826 -0.369896,0.89989 -0.532495,1.08358 -1.323382,1.98846 -2.322496,2.65728 -0.134621,0.0901 -0.244763,0.16733 -0.244763,0.17159 0,0.0175 0.834034,-0.11886 1.190738,-0.19468 0.822042,-0.17471 1.830038,-0.49161 2.453532,-0.77135 0.09554,-0.0429 0.178162,-0.0735 0.183606,-0.068 0.01816,0.0182 -0.389362,0.5821 -0.691661,0.95712 -0.710918,0.881948 -1.503242,1.656572 -2.358601,2.30591 l -0.294052,0.223226 -2.66e-4,0.825837 c -2.65e-4,1.130677 -0.07163,2.029841 -0.244802,3.081005 -0.774062,4.698505 -3.232122,9.047053 -6.787679,12.00807 -2.921626,2.43309 -6.444865,3.858265 -10.399106,4.206513 -0.469441,0.04134 -1.740584,0.09547 -2.024252,0.0862 -0.08004,-0.0026 -0.264609,-0.0079 -0.410141,-0.01171 z"
           id="path2110" />
      </g>
      <g
         id="g2180"
         transform="matrix(0.95225157,0,0,0.95225157,277.97685,113.28435)"
         inkscape:label="telegram"
         inkscape:export-filename="telegram.png"
         inkscape:export-xdpi="30.264503"
         inkscape:export-ydpi="30.264503">
        <rect
           style="fill:none;stroke:none;stroke-width:0.443525;stroke-linecap:round;paint-order:stroke fill markers"
           id="rect2176"
           width="35.254005"
           height="35.254005"
           x="-78.423096"
           y="-68.039383"
           inkscape:export-filename="facebook.png"
           inkscape:export-xdpi="6.0799999"
           inkscape:export-ydpi="6.0799999" />
        <path
           style="fill:#ffffff;stroke-width:0.0567513"
           d="m -52.794122,-39.345882 c 0,-0.03126 -0.03994,-0.05673 -0.08889,-0.05673 -0.317365,0 -1.16829,-0.536464 -5.416027,-3.414576 -0.483808,-0.327809 -1.403176,-0.948098 -2.043049,-1.378424 -1.62474,-1.092668 -1.912589,-1.336916 -2.132713,-1.8097 -0.158984,-0.341431 -0.166717,-0.450439 -0.0545,-0.768456 0.183852,-0.521065 0.389206,-0.751883 2.101973,-2.362556 1.815837,-1.707614 2.044563,-1.924778 2.951195,-2.802011 1.693217,-1.638294 3.385292,-3.321397 3.437856,-3.41962 0.0835,-0.156065 0.06236,-0.25495 -0.09459,-0.441424 -0.103467,-0.122968 -0.196885,-0.174598 -0.315867,-0.174598 -0.239419,0 4.55e-4,-0.145785 -2.942288,1.788173 -0.608653,0.400008 -1.515253,0.995404 -2.014666,1.323089 -0.499414,0.327686 -1.661393,1.099028 -2.582192,1.714074 -0.920791,0.615054 -2.095531,1.398669 -2.610559,1.741356 -1.321906,0.879606 -1.837017,1.090741 -2.962889,1.214396 -0.701567,0.07708 -1.415093,-0.02183 -2.456859,-0.340695 -0.405763,-0.124175 -1.19745,-0.3661 -1.759286,-0.537588 -1.944553,-0.593544 -2.078073,-0.647308 -2.340921,-0.942483 -0.101093,-0.113557 -0.12764,-0.21159 -0.12769,-0.47204 -4.1e-5,-0.180784 0.02572,-0.359558 0.05723,-0.397253 0.03151,-0.03771 0.107362,-0.135406 0.168486,-0.21714 0.06112,-0.08179 0.258755,-0.219165 0.439208,-0.305438 0.779157,-0.372526 1.15017,-0.543221 1.576608,-0.725369 0.249707,-0.106659 1.552154,-0.673102 2.894322,-1.258756 4.193766,-1.829946 5.027324,-2.192051 5.845376,-2.539246 0.436991,-0.185456 0.871137,-0.372633 0.964779,-0.415935 0.188599,-0.08726 0.864347,-0.376942 1.645779,-0.70562 0.280927,-0.118155 1.16198,-0.489018 1.957925,-0.824147 0.795938,-0.335128 1.779151,-0.744051 2.184923,-0.908725 0.405771,-0.164657 1.222987,-0.497089 1.816043,-0.738733 2.608136,-1.062705 4.011105,-1.57827 4.951546,-1.819608 0.226302,-0.05806 0.411453,-0.125465 0.411453,-0.149763 0,-0.02431 0.255372,-0.04416 0.567509,-0.04416 0.340504,0 0.567518,0.02266 0.567518,0.05673 0,0.03126 0.03821,0.05673 0.08493,0.05673 0.149217,0 0.516747,0.384012 0.595288,0.621976 0.0416,0.126119 0.09712,0.229296 0.12334,0.229296 0.02622,0 0.04772,0.306448 0.04772,0.681008 0,0.37456 -0.022,0.681016 -0.04879,0.681016 -0.02688,0 -0.06327,0.146844 -0.08096,0.326321 -0.197076,2.006876 -0.871981,6.388704 -1.798445,11.676586 -0.125788,0.717901 -0.344043,1.994809 -0.485015,2.837564 -0.502408,3.003395 -0.672308,3.693335 -1.051864,4.271133 -0.211548,0.322028 -0.633827,0.694595 -0.787278,0.694595 -0.03333,0 -0.0607,0.02555 -0.0607,0.05673 0,0.03407 -0.226997,0.05673 -0.567501,0.05673 -0.340512,0 -0.567518,-0.02266 -0.567518,-0.05673 z"
           id="path2174" />
      </g>
    </g>
  </g>
</svg>
